<?xml version="1.0" standalone="no"?>
<!DOCTYPE svg PUBLIC "-//W3C//DTD SVG 20010904//EN"
 "http://www.w3.org/TR/2001/REC-SVG-20010904/DTD/svg10.dtd">
<svg version="1.0" xmlns="http://www.w3.org/2000/svg"
 width="256.000000pt" height="256.000000pt" viewBox="0 0 256.000000 256.000000"
 preserveAspectRatio="xMidYMid meet">
<metadata>
Created by potrace 1.16, written by Peter Selinger 2001-2019
</metadata>
<g transform="translate(0.000000,256.000000) scale(0.100000,-0.100000)"
fill="#000000" stroke="none">
<path d="M975 1754 c-12 -3 -34 -15 -50 -28 l-30 -24 -1 -289 c-1 -179 2 -293
8 -300 12 -15 84 -17 93 -3 3 6 32 10 63 10 53 0 62 -4 117 -45 33 -25 73 -53
88 -61 27 -15 31 -14 70 12 22 14 53 40 68 56 15 17 32 27 38 24 6 -4 11 -3
11 2 0 14 61 24 75 12 7 -6 50 -11 96 -13 l84 -2 0 280 c-1 154 -4 292 -8 307
-12 44 -52 58 -166 58 -109 0 -231 -30 -231 -56 0 -19 -6 -18 -30 6 -10 10
-43 26 -72 34 -56 16 -189 27 -223 20z m238 -104 c15 -7 27 -19 27 -25 0 -7
13 -18 30 -25 27 -11 34 -9 79 19 56 36 69 40 167 46 53 4 75 1 83 -9 9 -11
17 -314 11 -451 0 -6 -38 -10 -92 -10 -103 0 -143 -14 -187 -66 -27 -33 -61
-38 -68 -10 -11 44 -222 105 -243 70 -5 -6 -15 -9 -24 -6 -14 6 -16 34 -16
227 0 187 2 222 15 226 8 4 15 12 15 19 0 16 165 12 203 -5z"/>
<path d="M1034 1594 c-13 -11 -15 -17 -6 -20 13 -6 18 -159 5 -167 -5 -3 -7
-42 -5 -87 3 -76 5 -82 29 -91 17 -6 30 -6 38 1 17 14 103 -6 130 -31 33 -29
72 -40 100 -27 14 6 25 15 25 20 0 4 3 7 8 6 4 -1 20 4 35 10 16 7 37 12 48
12 10 0 19 5 19 11 0 8 16 10 50 5 l50 -7 0 184 0 184 -36 6 c-48 8 -174 -21
-197 -45 -20 -20 -53 -17 -73 8 -12 15 -122 44 -170 44 -16 0 -39 -7 -50 -16z
m86 -75 c0 -5 3 -8 8 -7 14 4 84 -13 128 -32 45 -20 46 -20 83 0 21 10 51 21
66 24 16 3 33 10 39 16 5 5 25 10 43 10 28 0 33 -3 33 -24 0 -28 -18 -45 -29
-27 -8 13 -148 -23 -169 -44 -11 -10 -21 -9 -53 7 -22 10 -65 24 -97 30 -55
10 -82 28 -82 55 0 7 6 10 15 7 8 -4 15 -10 15 -15z"/>
<path d="M776 1445 c-9 -9 -14 -20 -11 -25 9 -15 -43 -122 -56 -114 -7 4 -9 3
-5 -4 3 -5 0 -13 -6 -15 -10 -4 -10 -6 -1 -6 7 -1 10 -8 7 -16 -4 -8 -11 -12
-17 -8 -6 3 -7 1 -3 -6 6 -10 -26 -77 -44 -91 -4 -3 -28 -52 -55 -110 -26 -58
-70 -150 -98 -205 -66 -132 -117 -252 -117 -276 0 -10 12 -27 27 -36 25 -17
84 -18 900 -21 l873 -3 30 29 c25 25 28 34 21 59 -12 42 -201 417 -212 421 -5
2 -7 8 -3 13 3 5 1 9 -5 9 -6 0 -8 7 -4 15 3 10 1 15 -7 13 -14 -3 -198 344
-199 375 -1 22 -39 20 -54 -3 -11 -18 50 -170 68 -170 6 0 38 -57 72 -127 101
-215 105 -225 93 -233 -8 -5 -9 -10 -2 -14 6 -3 12 0 15 6 4 13 127 -222 127
-242 0 -6 -63 -10 -175 -10 -96 0 -175 3 -175 8 0 6 -291 5 -998 -5 l-283 -4
11 21 c6 11 15 18 19 15 5 -2 14 17 20 43 21 79 73 182 93 182 28 0 70 92 62
135 -5 29 7 61 76 212 104 226 98 208 71 191 -18 -11 -23 -11 -30 0 -6 11 -11
10 -25 -3z"/>
<path d="M1011 1043 c-1 -6 -29 -20 -63 -30 -50 -15 -64 -23 -66 -40 -4 -30
31 -38 111 -25 91 16 177 21 177 11 0 -5 3 -8 8 -7 4 1 27 -4 52 -12 38 -10
42 -14 25 -21 -19 -7 -19 -8 3 -8 14 -1 22 5 22 15 0 12 6 15 24 10 13 -3 52
3 85 13 61 19 91 18 242 -4 84 -13 121 32 52 62 -115 48 -245 52 -334 10 l-56
-27 -58 26 c-50 23 -66 26 -136 22 -51 -3 -80 -1 -83 6 -3 7 -5 7 -5 -1z"/>
<path d="M579 774 c-12 -25 -18 -49 -14 -52 4 -4 337 -8 741 -10 820 -3 753
-9 714 68 l-20 40 -701 0 -700 0 -20 -46z"/>
</g>
</svg>
