<?xml version="1.0" standalone="no"?>
<!DOCTYPE svg PUBLIC "-//W3C//DTD SVG 20010904//EN"
 "http://www.w3.org/TR/2001/REC-SVG-20010904/DTD/svg10.dtd">
<svg version="1.0" xmlns="http://www.w3.org/2000/svg"
 width="1024.000000pt" height="1024.000000pt" viewBox="0 0 1024.000000 1024.000000"
 preserveAspectRatio="xMidYMid meet">
<metadata>
Created by potrace 1.16, written by Peter Selinger 2001-2019
</metadata>
<g transform="translate(0.000000,1024.000000) scale(0.100000,-0.100000)"
fill="#000000" stroke="none">
<path d="M3916 6965 c-82 -21 -191 -81 -225 -124 -39 -50 -68 -110 -86 -178
-13 -49 -15 -213 -15 -1154 l0 -1096 23 3 c234 36 525 67 632 67 261 2 429
-69 675 -284 101 -88 202 -149 246 -149 27 0 109 52 164 105 97 92 253 214
318 248 150 79 359 117 540 98 90 -9 462 -65 578 -87 l30 -6 3 1075 c2 1119 0
1166 -41 1253 -46 99 -157 188 -273 219 -81 22 -347 30 -506 16 -311 -27 -636
-121 -779 -226 -26 -19 -50 -32 -52 -27 -5 14 -146 93 -212 119 -95 37 -349
101 -476 118 -169 23 -470 29 -544 10z m689 -280 c66 -15 159 -44 207 -65 76
-33 340 -198 354 -221 2 -5 61 33 129 85 152 113 243 159 394 199 109 29 127
31 296 32 189 0 245 -8 340 -50 44 -19 125 -92 125 -113 0 -4 1 -398 1 -876
l0 -868 -27 -29 c-38 -40 -74 -44 -211 -24 -138 20 -246 16 -403 -15 -194 -39
-343 -115 -527 -268 -84 -70 -90 -73 -130 -69 -48 5 -90 29 -223 127 -200 148
-452 230 -660 216 -292 -20 -283 -20 -312 3 -28 22 -51 82 -41 106 3 8 6 392
6 853 l2 839 39 48 c42 50 98 82 196 110 84 23 292 14 445 -20z"/>
<path d="M4150 5680 l0 -752 28 6 c15 3 81 9 147 12 100 5 140 3 240 -16 208
-39 393 -113 583 -232 l33 -21 47 34 c102 73 161 108 252 149 147 66 385 120
525 120 51 0 181 -21 218 -35 16 -7 17 32 17 734 0 414 -4 741 -9 741 -13 0
-401 -49 -441 -56 -161 -27 -370 -93 -522 -163 -36 -17 -70 -31 -75 -31 -4 0
-59 20 -122 45 -249 98 -427 142 -763 189 -59 9 -118 18 -133 22 l-25 6 0
-752z m423 429 c217 -36 486 -130 596 -208 l29 -21 83 57 c132 88 215 119 430
158 132 24 349 46 352 35 1 -3 1 -55 -1 -116 l-3 -111 -89 -6 c-108 -8 -375
-59 -480 -93 -43 -13 -125 -46 -183 -74 l-106 -49 -93 38 c-128 52 -295 106
-403 131 -74 17 -320 59 -347 60 -5 0 -8 52 -8 116 l0 116 53 -7 c28 -3 105
-15 170 -26z m1395 -891 c-233 -16 -469 -89 -674 -209 l-101 -59 -129 64
c-123 61 -173 79 -329 125 -78 22 -299 61 -351 61 l-34 0 0 110 0 110 68 0
c226 0 471 -64 680 -178 l93 -51 67 48 c164 119 362 177 647 189 l150 7 5
-105 5 -105 -97 -7z"/>
<path d="M3365 5790 c-11 -5 -63 -9 -115 -9 l-95 -1 -67 -133 c-59 -116 -278
-584 -278 -592 0 -4 -113 -239 -242 -505 -44 -91 -123 -255 -175 -365 -52
-110 -132 -276 -178 -370 -46 -93 -150 -307 -233 -475 -82 -168 -223 -453
-313 -635 -153 -308 -164 -334 -163 -385 0 -85 56 -172 126 -199 19 -7 1154
-11 3547 -11 3275 -1 3522 0 3553 15 88 45 135 132 125 230 -4 41 -33 106
-145 321 -76 148 -217 422 -312 609 -95 187 -214 421 -265 520 -229 445 -334
653 -655 1293 l-342 682 -99 0 c-64 0 -99 -4 -99 -11 0 -18 51 -140 98 -234
24 -49 50 -105 57 -125 12 -33 104 -222 403 -830 122 -250 227 -465 312 -645
23 -49 125 -256 225 -460 253 -511 426 -868 422 -872 -4 -3 -252 -3 -3940 -3
l-2598 0 15 28 c37 67 427 903 561 1202 46 102 120 266 165 365 45 99 97 214
114 255 38 86 219 483 278 610 22 47 50 110 63 140 13 30 44 96 68 145 56 110
132 275 157 335 10 25 26 62 34 83 9 20 15 37 14 36 -2 0 -12 -4 -23 -9z"/>
<path d="M4190 4133 c-262 -28 -571 -145 -705 -267 l-60 -55 185 0 c197 -1
278 8 375 39 147 48 253 63 435 64 207 1 248 -8 455 -92 l140 -57 145 0 c137
0 150 2 235 32 361 126 316 115 475 120 170 6 328 -14 560 -71 132 -32 160
-35 318 -38 l172 -3 -57 53 c-143 133 -370 224 -665 268 -168 24 -417 16 -561
-19 -220 -54 -382 -138 -441 -229 l-19 -29 -15 23 c-98 143 -483 270 -806 266
-72 0 -147 -3 -166 -5z"/>
<path d="M2366 3238 c-7 -18 -38 -91 -69 -163 -30 -71 -58 -140 -62 -152 l-6
-23 2968 -2 c1632 -2 2969 -2 2971 -2 6 3 -61 162 -111 264 l-52 105 -2812 3
-2813 2 -14 -32z"/>
</g>
</svg>
